<svg width="177" height="125" viewBox="0 0 177 125" fill="none" xmlns="http://www.w3.org/2000/svg">
<path fill-rule="evenodd" clip-rule="evenodd" d="M76.7906 41.5165C77.0119 42.2285 76.7803 41.8318 75.1876 43.9L69.6527 50.3757C68.9043 51.2482 69.1924 51.4236 68.5055 51.2744C68.1279 53.0124 64.6092 55.0544 66.0187 56.4788C67.161 57.6126 76.6325 56.9408 78.7541 57.2368C80.6533 57.0416 85.0809 56.7383 86.3735 58.0343L73.8976 88.147L69.2037 88.228L73.7198 88.1364C73.5009 91.064 70.8268 94.645 70.6069 97.4814C72.2307 97.5376 70.474 97.65 71.9758 97.9116C72.8235 98.0591 72.534 97.8296 73.4963 97.8455C73.7799 96.3497 75.4157 95.0073 76.3359 93.9018C76.9093 93.2128 77.3969 92.8034 77.9654 92.1062C78.676 91.2348 78.7721 90.9357 79.5895 90.3237C80.4178 88.4857 86.9861 81.4122 88.7326 79.4409L107.397 58.1029C108.945 56.36 110.431 54.6666 112.05 52.7539C112.772 51.9005 116.001 47.7578 116.993 47.4559C117.451 46.5773 118.303 45.5026 117.791 44.1896C117.038 42.2582 116.314 44.063 115.417 42.1712C115.577 43.3839 115.574 42.8394 114.244 42.9667L98.5665 42.7995C97.5307 41.0484 97.9623 41.2043 99.4705 37.5887L106.153 21.7097C107.682 18.3656 109.108 14.6676 110.535 11.2058C111.288 9.37947 111.932 7.92114 112.779 6.0117C113.586 4.19065 114.862 2.43428 114.309 0.177672C112.25 -0.561569 111.762 1.05161 108.904 4.16766C105.273 8.1269 98.9409 16.1663 95.3204 20.3093L78.2496 40.383C77.6065 41.239 77.8586 41.2913 76.7909 41.5161L76.7906 41.5165Z" fill="#FC6403"/>
<path fill-rule="evenodd" clip-rule="evenodd" d="M9.86577 124.08L20.5256 124.069L20.5079 96.996C21.9291 98.7636 23.502 101.511 24.7213 103.495L37.6069 123.955L49.8944 124.062C49.9676 121.671 50.1882 81.3422 49.7639 79.2754L38.8719 79.3196C38.4985 80.856 38.6354 102.641 38.6859 105.945C36.2504 102.866 23.963 81.5271 22.0677 79.338L10.0051 79.304L9.86542 124.08H9.86577Z" fill="#019036"/>
<path fill-rule="evenodd" clip-rule="evenodd" d="M0.00035388 69.6214L10.7326 69.7547L10.7782 42.9328L23.4931 62.9976C24.6474 64.8431 26.5497 68.1949 27.8914 69.7063L40.3433 69.7423L40.3482 25.3246L29.3179 25.1652L29.314 52.8734C23.3835 43.3185 17.9451 34.6074 12.2213 25.1811L0.026869 25.1797L0 69.6211L0.00035388 69.6214Z" fill="#019036"/>
<path fill-rule="evenodd" clip-rule="evenodd" d="M115.417 42.1716C116.314 44.0633 117.038 42.2585 117.791 44.1899C118.303 45.5029 117.451 46.5777 116.993 47.4562C117.19 48.5642 123.013 68.0043 123.782 69.3241C124.346 70.2907 131.709 69.6861 133.342 69.7137C136.444 69.766 135.479 70.7817 137.438 63.8701C138.918 58.648 140.471 53.6187 141.826 48.4662L142.09 48.8774C142.116 48.929 142.176 49.0241 142.207 49.0881L143.605 53.7534C144.128 55.6324 144.584 57.2544 145.111 59.0907C145.599 60.7901 147.654 68.7842 148.43 69.5783L160.5 69.7119C161.288 68.4095 167.522 47.6146 168.915 43.043L171.023 36.2994C171.728 34.1127 171.902 34.3051 170.491 34.1481L160.271 34.1113C159.343 35.9147 157.793 43.1841 157.171 45.5616L154.194 57.1483L148.037 34.2082L137.126 34.1453C135.785 36.3216 131.812 55.0243 130.477 57.1703C129.478 55.2644 126.419 38.3131 124.635 34.17L113.157 34.1368C113.059 35.395 114.948 40.44 115.418 42.1719L115.417 42.1716Z" fill="#019036"/>
<path fill-rule="evenodd" clip-rule="evenodd" d="M129.539 124.047L141.3 124.056L147.335 103.112C147.349 103.162 147.412 103.182 147.43 103.29C147.448 103.396 147.529 103.434 147.553 103.478C148.246 104.783 153.039 122.408 153.542 124.061L165.236 124.047L176.427 88.9913L164.982 88.7908L159.409 111.03C158.61 109.683 156.767 101.426 156.368 99.9116L153.336 88.8361C150.732 88.8032 144.701 88.5119 142.478 88.9753L136.252 111.421L130.53 88.8629L119.313 88.8032C119.605 90.818 128.85 121.855 129.539 124.047Z" fill="#019036"/>
<path fill-rule="evenodd" clip-rule="evenodd" d="M79.5895 90.324C78.7721 90.936 78.6763 91.2351 77.9654 92.1066C77.3969 92.8034 76.9097 93.2131 76.3359 93.9022C75.4153 95.0077 73.7799 96.35 73.4963 97.8458C74.4233 98.7064 74.8606 98.601 75.7611 99.6054C80.369 104.745 78.3793 116.636 69.6272 115.466C65.5506 114.921 63.4701 110.543 63.6217 106.038C63.7907 101.016 66.0675 98.176 70.6069 97.4817C70.8268 94.6453 73.5013 91.0643 73.7198 88.1367L69.2037 88.2283C48.4519 90.8847 47.473 120.278 66.4415 124.356C75.6557 126.337 84.9321 120.938 86.9671 113.364C87.3294 112.015 86.2483 108.341 86.2515 106.331C86.255 104.39 87.3337 100.06 87.2011 99.3084C86.6096 95.9491 81.972 91.0329 79.5891 90.324H79.5895Z" fill="#019036"/>
<path fill-rule="evenodd" clip-rule="evenodd" d="M78.204 58.0778C77.2841 57.5928 78.1902 58.3274 77.3269 57.1183L67.3254 57.2315C66.1096 58.892 65.6822 60.006 63.6009 60.893C57.7852 63.3724 52.5391 57.7045 54.0629 49.9158C55.7705 41.187 67.6315 40.2586 68.5051 51.2744C69.192 51.4236 68.9039 51.2482 69.6523 50.3757L75.1873 43.9C76.78 41.8318 77.0115 42.2285 76.7902 41.5165C73.5331 34.9673 62.8857 31.4949 54.3256 35.0047C38.2457 41.5985 38.9563 69.398 59.3118 70.9147C68.7735 71.6196 76.2334 65.5169 78.2036 58.0775L78.204 58.0778Z" fill="#019036"/>
<path d="M102.672 88.1401C113.168 87.0396 121.017 95.2164 121.644 104.6C122.375 115.551 115.69 124.021 105.912 124.737C82.1922 126.474 79.6955 90.5488 102.673 88.1401H102.672ZM105.802 115.352C114.478 113.342 112.748 95.4956 102.848 97.7075C93.4915 99.7987 95.7414 117.682 105.802 115.352Z" fill="#019036"/>
</svg>
